<svg xmlns="http://www.w3.org/2000/svg" width="1555" height="654" version="1.0"><g fill="#ccc7c7"><path d="m268.9 16.9-4.3 12.8-5.1 1.7c-7.2 2.3-10.3 2-17.7-1.4-11.9-5.4-23.9-7.1-56.8-8.1-16.2-.5-31.3-1.3-33.5-1.8-2.2-.5-5.5-1.2-7.2-1.6-4.6-1.1-5.8-2.7-4.4-6.6.6-1.8 1-3.3.8-3.5-.1-.1-4.6 2.6-9.9 6.2-11.3 7.5-20.6 16.4-23.2 22.2-1.7 3.8-1.8 4.3-.2 6.6 2.6 4.1 12.1 5.7 22.4 3.7 2.3-.5 4.2-.5 4.2 0 0 1.8-14.1 12.3-22.1 16.4-13.8 7.2-21.8 9-38.9 8.9-12.3 0-16.1-.4-24.7-2.6-12-3.1-26-8.5-36.3-14-4.1-2.2-7-3.6-6.5-3 .9.9 100.4 75.5 116.5 87.2l7.4 5.5-14.4.6c-16.2.8-23.4 2.5-28.2 6.8-8.3 7.4-2.8 23.9 17.2 51.9 3.3 4.6 6 8.5 6 8.7 0 .2-1.6-.3-3.5-1.1-1.9-.7-4.6-1.4-6.1-1.4-2.4 0-2.6.2-2 3.2 1.5 7.6 9.4 18 50 66 17.9 21.3 32.6 38.9 32.6 39.2 0 .3-4.9.6-11 .6-6 0-11 .3-11 .7 0 .5 9.3 11.8 20.6 25.3s25.7 31.1 31.9 39.2C255.9 442.9 275 490.1 275 542c0 32.7-6.8 55-20.9 69-12.4 12.3-25.7 17-48.1 17-24.8 0-38.6-5.6-55.6-22.5-29.2-28.8-51.9-83-77.4-183.8-3.7-14.7-6.9-27-7.1-27.2-.6-.5-15.6 1.9-16.4 2.6-.5.6 2.4 25.8 8.5 72.9 1.2 8.5 2.7 20.9 3.5 27.5.8 6.6 3 24.1 4.9 39C73 587.3 79 634.9 79 635.8c0 .5 10.7 1.2 23.8 1.5 18.2.4 29.1 1.2 47.2 3.6 34.1 4.5 54.1 5.7 68.7 4.3 28-2.8 51.1-13.1 68.7-30.8 29.4-29.3 44.6-81.4 40.7-139.5C324.4 419 307 365.8 280 328.1l-5-7.1h7.8c4.2 0 9.4-.3 11.4-.6l3.8-.7-3.7-5.1c-6.5-9-19.1-24.2-47.3-57.6-53-62.6-69.7-83.8-89.6-113.1-10.3-15.2-20.4-35-22.4-43.5-1.4-6.4.9-26.4 4.1-34.9 11.6-31 48.9-34 88.9-7.2 10.3 7 23.8 20.8 29 29.8 2.4 4.1 7 11.9 10.2 17.4 12.8 21.5 31.1 64 41.3 95.5 1.5 4.7 3.2 9 3.9 9.7.9 1 2.7.8 8.5-.7 4-1 7.7-2.2 8.2-2.7.4-.4.2-3.7-.6-7.3-.8-3.6-3.5-17.3-6-30.5-5.4-28-12.6-65.5-19.5-101.5-2.7-14-6.6-34.2-8.6-44.8L290.7 4h-17.6l-4.2 12.9zM1028.4 11.7c-.8 2.1-2.7 6.8-4.1 10.5-1.9 5.2-3 6.8-4.5 6.8-1.1 0-6.5-1.2-12-2.6-27.2-6.9-61.3-10.4-82.4-8.5-46.9 4.2-79.5 21.5-105.5 56-9.5 12.6-22.6 38.3-28.9 56.6-14.2 41.3-21.6 93-23.6 166l-.7 24-18.1-.3c-10-.2-21.2-.2-25.1 0l-7 .3 6.3 3.4c9.2 5 14.7 10.3 18.3 17.7 3.2 6.4 3.2 6.4 4 28.3 2.1 58.4 10.5 104.4 27 149.1 13.7 36.9 32.3 67.5 54.8 90.1 12.9 13 24.4 21.5 37.6 27.9 18.1 8.8 28.7 11.3 47.5 11.3 24.8-.1 46.1-7.7 71.2-25.3 9.8-6.9 28.2-24 37.9-35.3 3.2-3.7 18.8-17.8 34.6-31.3 15.9-13.6 29.6-25.5 30.6-26.6 1.6-1.9 1.7-9.5 1.7-129.8 0-70.2.3-132.4.6-138.2l.7-10.6 10.6-6.6 10.6-6.6h34.2l.7-5.3c.3-2.8.6-6.7.6-8.5V221l-113.2.2-113.3.3.1 8 .2 8 30 .3 29.9.2 10.8 6.9 10.8 6.8-.2 30.9c-.1 17-.3 79-.5 137.9-.3 91.4-.6 108.8-2 119.5-4.6 36.1-12.1 56.3-26.1 70.5-8.1 8.3-15.7 12.4-28.4 15.6-7.4 1.9-10.5 2.1-25.5 1.7-15-.4-18.1-.8-25.1-3.1-29.7-9.7-43.7-31.8-51.2-80.7-1.4-9-1.7-25.4-2-116.4-.3-86.5-.2-106.1.9-106.7.7-.5 4.3-.9 8.1-.9h6.7v-78.8c0-80.5.4-91.8 4.1-113.7 3.5-21.2 7.6-34.9 15-50.4 6-12.7 11.7-20.8 20.3-28.8 10.5-9.9 19.7-14.4 33-16.2 49-6.8 106.2 51.4 135.4 137.9 2.5 7.4 4.9 14 5.4 14.6 1.1 1.5 16.8-2.3 16.8-4.1 0-.7-2.5-12.2-5.5-25.6-3.1-13.4-7.1-31.4-9-39.9-1.9-8.5-5.5-24.5-8-35.5s-6.6-29-9.1-40c-2.4-11-5-22.5-5.8-25.5l-1.2-5.5-8.7-.3-8.6-.3-1.7 3.8z"/><path d="M1217.8 28.7c-1.6.2-2.8.7-2.8 1.1 0 .3 2 6.7 4.4 14.2 2.4 7.4 7.6 23.6 11.6 36 3.9 12.4 9.6 30 12.6 39.2 5.4 16.6 5.4 16.7 5.4 29.3 0 12.5-.1 13.1-5.4 30.9-3 9.9-7.9 26.6-10.9 37.1-3.1 10.4-10.8 36.8-17.2 58.5-6.4 21.7-13.6 46.2-16 54.5-2.4 8.2-7.3 25.1-11 37.5-13.8 46.6-46.7 158.9-57 194-5.8 20-11.1 37-11.6 37.6-.5.7-8.6 6.5-17.9 13l-17 11.9-19.7.5-19.8.5-.3 8.8-.3 8.7 104.3-.2 104.3-.3.3-7.9c.2-5.7-.1-8.2-1-8.7-.7-.5-18.5-.9-39.6-.9h-38.4l-15.1-13.7c-8.4-7.6-15.5-14.2-15.8-14.7-.4-.4.4-4.3 1.6-8.5 1.3-4.2 9.4-31.5 18-60.6 8.6-29.2 18-61.1 21-71 2.9-9.9 7.7-25.9 10.5-35.5 2.9-9.6 5.7-18.1 6.3-18.9.6-.7 3.6-2.9 6.7-5l5.5-3.6 52.5-.2 52.5-.3 7 3.8 7 3.8 4.7 13.9c4.2 12.8 12.1 37.1 24.8 77 10.7 33.3 21.2 66.3 28.5 89 4.3 13.2 8 24.7 8.2 25.6.3 1.1-3 4.2-11 10.2l-11.5 8.7-30.4.2-30.3.3-.3 8.7-.3 8.8h235.2l-.3-8.8-.3-8.7-17.7-.5-17.6-.5-9.1-6.5c-8.7-6.2-9.2-6.8-11-12.5-9.4-28.8-35.8-109.7-48-147-8.2-25.3-22-67.6-30.6-94-8.6-26.4-19.2-59-23.7-72.5-16-48.9-26.8-81.9-33.6-103-57.1-175.3-51.3-158.4-54.8-159.1-3.2-.7-81.2-.9-85.6-.2zm55.7 173c4.2 13.1 9.2 28.3 11 33.8 1.9 5.5 8.8 26.6 15.4 47 6.6 20.3 14.3 44 17 52.6 2.8 8.5 5.1 16 5.1 16.6 0 .5-1.6 3.1-3.5 5.7l-3.6 4.6h-49.8c-46.2 0-49.9-.1-51.3-1.8-4-4.5-4.3-3.2 13.9-64.2 9.5-32.2 20.3-68.6 23.9-81 11-37.8 10.7-37 12.8-37 1.1 0 3.7 6.9 9.1 23.7zM336.2 38.2l.3 8.3 17.5.5 17.6.5 10.7 6.8 10.7 6.9V269c0 180.2.2 209.7 1.5 222.6 8.9 85.2 49 135.8 118.9 149.9 31.6 6.4 69.5 5.5 96.1-2.1 47.5-13.6 72.1-50.4 80-119.5 3.2-28.3 3.5-48.7 3.5-253.1V61l10.3-6.7 10.2-6.8 17.5-.3c12-.2 17.7-.7 18.2-1.5.9-1.4 1.1-11.9.2-14.1-.6-1.4-7.4-1.6-67.5-1.6H615v16.9l17.8.3 17.7.3 10.3 6.7L671 61v201.7c0 119.9-.4 209.9-1 221.8-3 59.9-13.5 95.2-34.2 115.2-14.6 14-31.1 19.8-56.3 19.7-21.8-.1-36.3-4.4-49.9-14.6-22.9-17.2-34-47.6-39.3-107.3-2.3-26.1-3.2-432.8-.9-436 .8-1.2 5.9-4.9 11.3-8.3l10-6.2H545V30H335.9l.3 8.2z"/></g></svg>